<svg xmlns="http://www.w3.org/2000/svg" width="410" height="404" viewBox="0 0 410 404" fill="none">
  <path d="M399.641 59.524L209.99 399.19c-3.147 5.714-11.359 5.673-14.459-.068L10.109 59.524c-3.463-6.35 1.646-13.997 8.926-13.24l173.979 20.45c2.69.315 5.368-.533 7.37-2.335L244.34 26.98c2.624-2.383 6.163-3.093 9.461-1.907l110.98 40.345c6.476 2.364 9.49 9.964 6.86 17.106z" fill="url(#paint0_linear)"/>
  <path d="M292.965 18.387L164.134 46.621c-2.128.468-3.836 2.099-4.396 4.209L123.18 200.48c-.654 2.54 1.272 4.978 3.887 4.923l66.293-1.394c2.997-.063 5.306 2.676 4.559 5.57l-19.71 76.287c-.701 2.715 1.796 5.07 4.305 4.04l40.892-17.13c2.54-1.067 5.373 1.106 4.88 3.812l-15.072 82.94c-.458 2.519 2.597 4.11 4.27 2.242l8.843-9.739c.67-.737 1.173-1.61 1.474-2.555l80.048-249.623c.836-2.6-1.148-5.246-3.885-5.197l-67.592 1.196c-2.851.05-4.888-2.68-4.146-5.43L298.47 25.29c.685-2.54-1.154-4.87-3.838-4.903-.556-.007-1.108-.005-1.667 0z" fill="url(#paint1_linear)"/>
  <defs>
    <linearGradient id="paint0_linear" x1="6.00017" y1="32.9999" x2="235" y2="344" gradientUnits="userSpaceOnUse">
      <stop stop-color="#41D1FF"/>
      <stop offset="1" stop-color="#BD34FE"/>
    </linearGradient>
    <linearGradient id="paint1_linear" x1="194.651" y1="8.81816" x2="236.076" y2="292.989" gradientUnits="userSpaceOnUse">
      <stop stop-color="#FFEA83"/>
      <stop offset="0.0833333" stop-color="#FFDD35"/>
      <stop offset="1" stop-color="#FFA800"/>
    </linearGradient>
  </defs>
</svg>
