<svg width="900" height="520" viewBox="0 0 900 520" fill="none" xmlns="http://www.w3.org/2000/svg">
  <rect width="900" height="520" rx="24" fill="#fbf8f2" />
  <g stroke="#c9b8a6" stroke-width="2" stroke-linecap="round">
    <line x1="120" y1="120" x2="240" y2="160" />
    <line x1="240" y1="160" x2="360" y2="200" />
    <line x1="360" y1="200" x2="440" y2="260" />
    <line x1="440" y1="260" x2="520" y2="320" />
    <line x1="520" y1="320" x2="640" y2="360" />
    <line x1="440" y1="260" x2="420" y2="360" />
    <line x1="420" y1="360" x2="360" y2="420" />
    <line x1="520" y1="320" x2="600" y2="260" />
    <line x1="600" y1="260" x2="700" y2="220" />
    <line x1="700" y1="220" x2="780" y2="260" />
    <line x1="700" y1="220" x2="720" y2="140" />
    <line x1="360" y1="200" x2="320" y2="120" />
  </g>
  <g fill="#f0e5d8" stroke="#9a6b47" stroke-width="1.5">
    <circle cx="120" cy="120" r="22" />
    <circle cx="240" cy="160" r="22" />
    <circle cx="360" cy="200" r="22" />
    <circle cx="440" cy="260" r="22" />
    <circle cx="520" cy="320" r="22" />
    <circle cx="420" cy="360" r="22" />
    <circle cx="360" cy="420" r="22" />
    <circle cx="640" cy="360" r="22" />
    <circle cx="700" cy="220" r="22" />
    <circle cx="780" cy="260" r="22" />
  </g>
</svg>
